HIERARCHY
ROOT Hips
{
	OFFSET 0.00000 0.00000 0.00000
	CHANNELS 6 Xposition Yposition Zposition Zrotation Yrotation Xrotation 
	JOINT LHipJoint
	{
		OFFSET 0 0 0
		CHANNELS 3 Zrotation Yrotation Xrotation
		JOINT LeftHip
		{
			OFFSET 1.75344 -1.53157 0.77399
			CHANNELS 3 Zrotation Yrotation Xrotation
			JOINT LeftKnee
			{
				OFFSET 2.25415 -6.19323 0.00000
				CHANNELS 3 Zrotation Yrotation Xrotation
				JOINT LeftAnkle
				{
					OFFSET 2.30342 -6.32861 0.00000
					CHANNELS 3 Zrotation Yrotation Xrotation
					JOINT LeftToe
					{
						OFFSET 0.10958 -0.30108 1.49206
						CHANNELS 3 Zrotation Yrotation Xrotation
						End Site
						{
							OFFSET 0.00000 -0.00000 0.77783
						}
					}
				}
			}
		}
	}
	JOINT RHipJoint
	{
		OFFSET 0 0 0
		CHANNELS 3 Zrotation Yrotation Xrotation
		JOINT RightHip
		{
			OFFSET -1.81912 -1.53156 0.77399
			CHANNELS 3 Zrotation Yrotation Xrotation
			JOINT RightKnee
			{
				OFFSET -2.22882 -6.12365 0.00000
				CHANNELS 3 Zrotation Yrotation Xrotation
				JOINT RightAnkle
				{
					OFFSET -2.21943 -6.09785 0.00000
					CHANNELS 3 Zrotation Yrotation Xrotation
					JOINT RightToe
					{
						OFFSET -0.18931 -0.52012 1.59379
						CHANNELS 3 Zrotation Yrotation Xrotation
						End Site
						{
							OFFSET -0.00000 -0.00000 0.84686
						}
					}
				}
			}
		}
	}
	JOINT lowerback
	{
		OFFSET 0 0 0
		CHANNELS 3 Zrotation Yrotation Xrotation
		JOINT Chest
		{
			OFFSET -0.00200 1.66634 -0.14248
			CHANNELS 3 Zrotation Yrotation Xrotation
			JOINT Chest2
			{
				OFFSET -0.00875 1.64542 0.09514
				CHANNELS 3 Zrotation Yrotation Xrotation
				JOINT lowerneck
				{
					OFFSET 0 0 0
					CHANNELS 3 Zrotation Yrotation Xrotation
					JOINT Neck
					{
						OFFSET 0.02257 1.59605 0.00839
						CHANNELS 3 Zrotation Yrotation Xrotation
						JOINT Head
						{
							OFFSET -0.10214 1.57530 -0.23335
							CHANNELS 3 Zrotation Yrotation Xrotation
							End Site
							{
								OFFSET -0.03588 1.60717 -0.08062
							}
						}
					}
				}
				JOINT LeftCollar
				{
					OFFSET 0 0 0
					CHANNELS 3 Zrotation Yrotation Xrotation
					JOINT LeftShoulder
					{
						OFFSET 2.54983 1.10186 0.40078
CHANNELS 3 Zrotation Xrotation Yrotation
						JOINT LeftElbow
						{
OFFSET 0 -4.288400 0.000000
CHANNELS 3 Zrotation Xrotation Yrotation
							JOINT LeftWrist
							{
OFFSET 0 -3.065520 -0.000000
CHANNELS 3 Zrotation Xrotation Yrotation
								JOINT lhand
								{
									OFFSET 0 0 0
CHANNELS 3 Zrotation Xrotation Yrotation
									JOINT LFingers
									{
OFFSET 0 -0.753040 0.000000
CHANNELS 3 Zrotation Xrotation Yrotation
										End Site
										{
OFFSET 0 -0.607120 0.000000
										}
									}
								}
								JOINT LThumb
								{
OFFSET 0 0.000000 0.000000
CHANNELS 3 Zrotation Xrotation Yrotation
									End Site
									{
OFFSET 0 -0.616390 0.616390
									}
								}
							}
						}
					}
				}
				JOINT RightCollar
				{
					OFFSET 0 0 0
					CHANNELS 3 Zrotation Yrotation Xrotation
					JOINT RightShoulder
					{
						OFFSET -2.60909 1.35448 0.21802
CHANNELS 3 Zrotation Xrotation Yrotation
						JOINT RightElbow
						{
OFFSET 0 -4.521720 -0.000000
CHANNELS 3 Zrotation Xrotation Yrotation
							JOINT RightWrist
							{
OFFSET 0 -2.891400 0.000000
CHANNELS 3 Zrotation Xrotation Yrotation
								JOINT rhand
								{
									OFFSET 0 0 0
CHANNELS 3 Zrotation Xrotation Yrotation
									JOINT RFingers
									{
OFFSET 0 -0.680540 0.000000
CHANNELS 3 Zrotation Xrotation Yrotation
										End Site
										{
OFFSET 0 -0.548670 0.000000
										}
									}
								}
								JOINT RThumb
								{
OFFSET 0 0.000000 0.000000
CHANNELS 3 Zrotation Xrotation Yrotation
									End Site
									{
OFFSET 0 -0.557050 0.557050
									}
								}
							}
						}
					}
				}
			}
		}
	}
}
MOTION
Frames: 12
Frame Time: 0.008333333333333333
8.546100 15.106900 41.485000 -179.391000 -17.731700 178.951000 0.000000 0.000000 0.000000 -24.407900 -27.489600 0.530900 2.906700 10.542500 30.752000 1.703700 5.624800 -27.221100 5.500900 -13.926600 -42.944100 0.000000 0.000000 0.000000 27.147000 13.127500 4.663700 -1.861700 -8.571900 24.465000 0.960600 -26.688400 -31.829900 -0.530500 4.667300 -12.962100 3.839500 2.136800 7.496500 0.556000 3.273200 -4.020800 -2.032400 1.373100 -8.279600 4.969700 13.014800 -6.696400 0.766800 16.499300 21.682300 0.945700 8.022100 8.176800 -0.000000 -0.000000 0.000000 4.777700 11.929100 -44.696700 18.220100 -28.438000 4.653600 9.956300 11.939300 35.043800 0.000000 0.000000 0.000000 -7.125000 0.000000 0.000000 -12.510500 -4.730600 -13.821700 -0.000000 -0.000000 0.000000 -6.667500 16.190100 50.428400 -18.055300 -28.227900 -4.575400 -7.922300 17.759600 55.145700 0.000000 0.000000 0.000000 7.125000 0.000000 -0.000000 76.233100 74.695900 -60.367000
8.521757 15.097074 41.419200 -179.733923 -16.433767 178.884379 0.000000 0.000000 0.000000 -25.737325 -28.372652 2.344760 2.800647 10.365143 30.167456 1.705280 7.534688 -28.367010 4.289446 -12.535660 -37.654681 0.000000 0.000000 0.000000 26.831072 13.885955 5.094628 -1.927866 -8.714107 24.905130 -0.064174 -24.265858 -34.509572 -0.111775 2.137447 -5.886451 3.533812 2.667341 6.217480 0.474690 3.878933 -3.835344 -1.952551 1.711871 -7.311606 5.205611 12.871982 -5.620641 0.501298 16.345068 21.091894 0.713091 7.959428 7.832040 0.000000 0.000000 0.000000 4.691490 12.671107 -43.088319 19.208346 -29.676447 5.133694 4.336184 14.314660 36.588477 0.000000 0.000000 0.000000 -7.125000 0.000000 0.000000 -15.605527 -5.504514 -17.671295 0.000000 0.000000 0.000000 -6.683261 16.680715 50.672197 -18.090454 -28.272818 -4.592018 -11.327309 21.284346 55.822652 0.000000 0.000000 0.000000 7.125000 0.000000 0.000000 78.160393 76.038204 -63.745583
8.588866 15.148133 41.448017 -180.064982 -17.315599 181.055144 0.000000 0.000000 0.000000 -24.032694 -28.070073 -0.881441 2.711307 10.212345 29.667006 1.645404 5.690348 -26.849111 4.880218 -13.246891 -40.301047 0.000000 0.000000 0.000000 26.352904 14.927423 3.084894 -1.897702 -8.649687 24.705479 -0.952838 -22.627729 -37.348406 -0.062642 -1.608141 4.424032 2.353558 2.560613 5.151588 0.449692 3.556114 -4.886596 -1.256712 1.570998 -7.903658 5.034828 12.728804 -4.438463 0.854904 16.119431 20.493129 0.711207 7.886214 7.375926 0.000000 0.000000 0.000000 4.949842 14.227722 -43.662501 21.259830 -32.130310 6.187572 7.111593 13.189438 32.691494 0.000000 0.000000 0.000000 -7.125000 0.000000 0.000000 -13.901633 -2.072863 -14.834465 0.000000 0.000000 0.000000 -6.440338 17.016728 49.691472 -18.258450 -28.486779 -4.671809 -20.922260 30.453345 57.448782 0.000000 0.000000 0.000000 7.125000 0.000000 0.000000 88.080037 79.466404 -77.348686
8.592375 15.146125 41.447750 -180.037788 -17.630344 180.906262 0.000000 0.000000 0.000000 -24.031821 -28.023633 -0.754395 2.694425 10.183125 29.571826 1.631073 5.630184 -26.713542 5.084804 -13.478409 -41.187379 0.000000 0.000000 0.000000 26.547962 15.026266 3.416873 -1.886450 -8.625474 24.630672 -0.966302 -23.111627 -37.956354 -0.039625 -1.284496 3.531963 2.475870 2.510652 5.356265 0.453643 3.509372 -4.887870 -1.325802 1.539677 -8.019641 4.736921 12.523642 -4.333964 1.072232 15.834706 20.295889 0.776393 7.753128 7.241084 0.000000 0.000000 0.000000 5.015034 14.330022 -43.485378 21.040776 -31.875927 6.071451 6.824346 14.043724 32.750760 0.000000 0.000000 0.000000 -7.125000 0.000000 0.000000 -14.064853 -2.096312 -15.022701 0.000000 0.000000 0.000000 -6.457981 17.029736 49.101386 -18.529749 -28.830110 -4.802025 -28.903428 39.373167 59.207291 0.000000 0.000000 0.000000 7.125000 0.000000 0.000000 100.069232 -81.517640 108.594911
8.593766 15.147999 41.454065 -180.204369 -17.916008 181.165982 0.000000 0.000000 0.000000 -24.023979 -28.015698 -1.139793 2.695234 10.184600 29.576501 1.610595 5.414694 -26.446677 5.175751 -13.579053 -41.576643 0.000000 0.000000 0.000000 26.307599 14.958841 3.144174 -1.885499 -8.623332 24.623928 -0.884095 -23.146917 -37.579597 -0.067347 -1.660043 4.567324 2.404029 2.475922 5.280569 0.359425 3.444426 -4.987987 -1.375757 1.505049 -8.083888 4.688731 12.281077 -4.339174 1.135724 15.488416 20.292338 0.772349 7.587824 7.224024 0.000000 0.000000 0.000000 5.186318 14.463097 -43.423964 21.200196 -32.061256 6.155880 5.555835 14.861485 33.251325 0.000000 0.000000 0.000000 -7.125000 0.000000 0.000000 -14.784706 -2.430877 -15.930041 0.000000 0.000000 0.000000 -6.477788 17.162517 48.451234 -18.826161 -29.202085 -4.945715 -37.772105 50.913609 60.923776 0.000000 0.000000 0.000000 7.125000 0.000000 0.000000 131.960740 -81.493065 138.616962
8.592691 15.149968 41.459408 -180.086392 -18.146061 181.072972 0.000000 0.000000 0.000000 -23.952657 -28.167439 -1.066707 2.696542 10.186883 29.583992 1.597429 5.425425 -26.358202 5.211181 -13.617756 -41.727248 0.000000 0.000000 0.000000 26.411471 14.746627 3.116123 -1.891750 -8.636957 24.666072 -0.988052 -23.000641 -37.942238 -0.052565 -1.475780 4.059025 2.685398 2.456541 5.460914 0.358777 3.452025 -4.983581 -1.542891 1.491080 -8.168759 4.589166 11.951681 -4.249197 1.072057 15.059260 20.141197 0.717895 7.372325 7.146904 0.000000 0.000000 0.000000 5.140288 14.582896 -43.216151 21.189670 -32.049099 6.150288 9.072205 14.286654 32.320353 0.000000 0.000000 0.000000 -7.125000 0.000000 0.000000 -12.793155 -1.956804 -13.560720 0.000000 0.000000 0.000000 -6.551743 17.014923 47.970448 -18.913076 -29.310518 -4.988226 -39.095683 54.242788 61.379281 0.000000 0.000000 0.000000 7.125000 0.000000 0.000000 136.639890 -81.065236 143.145440
8.600103 15.149097 41.457794 -180.140002 -18.324306 180.995957 0.000000 0.000000 0.000000 -23.979203 -28.052996 -1.041176 2.694797 10.183744 29.573882 1.630766 4.850612 -26.282092 5.100028 -13.495581 -41.253171 0.000000 0.000000 0.000000 26.463808 14.735369 3.256599 -1.891106 -8.635463 24.661491 -0.929141 -23.349406 -38.036008 -0.052769 -1.472925 4.051258 2.547947 2.408319 5.528708 0.357732 3.380849 -4.910883 -1.460751 1.467833 -8.140317 4.457674 11.674638 -4.221893 1.108733 14.688924 19.960628 0.707709 7.193007 7.061994 0.000000 0.000000 0.000000 5.295190 14.858285 -42.994835 21.505670 -32.413809 6.318857 12.673689 12.473306 31.272545 0.000000 0.000000 0.000000 -7.125000 0.000000 0.000000 -10.691121 -1.435888 -11.150014 0.000000 0.000000 0.000000 -6.703534 16.723889 47.927986 -18.935586 -29.338533 -4.999243 -42.655191 57.916485 59.252804 0.000000 0.000000 0.000000 7.125000 0.000000 0.000000 144.755441 -82.540296 149.292359
8.613896 15.146757 41.447042 -180.108200 -18.668839 181.083267 0.000000 0.000000 0.000000 -23.796956 -28.143144 -1.183537 2.703613 10.199011 29.623640 1.640477 4.701875 -26.272602 5.031638 -13.419307 -40.959061 0.000000 0.000000 0.000000 26.729919 15.064133 3.509658 -1.866485 -8.582204 24.496823 -0.871421 -23.726448 -38.173992 -0.063155 -1.621202 4.459971 2.259855 2.301325 5.269181 0.461840 3.206443 -4.909795 -1.157929 1.403858 -8.015113 4.241371 11.288282 -4.183755 1.092089 14.175821 19.936838 0.686526 6.926494 7.021430 0.000000 0.000000 0.000000 5.286421 14.973444 -42.372521 21.787043 -32.735419 6.470287 12.223826 13.316874 31.562439 0.000000 0.000000 0.000000 -7.125000 0.000000 0.000000 -10.969815 -1.655298 -11.492127 0.000000 0.000000 0.000000 -7.035527 16.564162 48.233064 -18.965676 -29.375941 -5.013988 -42.856503 58.514974 59.793157 0.000000 0.000000 0.000000 7.125000 0.000000 0.000000 145.769477 -82.034232 150.511663
8.623232 15.149602 41.444933 -180.117678 -18.726968 181.121741 0.000000 0.000000 0.000000 -23.638562 -27.847908 -1.413124 2.703337 10.198640 29.622289 1.659438 4.190067 -26.143799 5.130793 -13.529563 -41.384580 0.000000 0.000000 0.000000 26.826451 15.237430 3.619165 -1.859195 -8.566390 24.448136 -0.878915 -23.966947 -38.485995 -0.067339 -1.673670 4.604526 2.120201 2.293282 5.269664 0.512465 3.185447 -4.938409 -1.025081 1.401575 -8.057284 3.849203 10.793786 -4.315795 1.339759 13.481616 19.952544 0.770216 6.582492 6.988598 0.000000 0.000000 0.000000 5.220540 15.004008 -42.085731 21.883481 -32.845032 6.522536 15.195727 10.545090 30.966374 0.000000 0.000000 0.000000 -7.125000 0.000000 0.000000 -9.228963 -1.531366 -9.595676 0.000000 0.000000 0.000000 -7.116073 16.558211 48.144316 -18.800117 -29.169613 -4.933059 -42.916760 59.164282 60.009516 0.000000 0.000000 0.000000 7.125000 0.000000 0.000000 146.075972 -81.834706 150.906947
8.620415 15.146451 41.454205 -180.188169 -18.682249 181.122244 0.000000 0.000000 0.000000 -23.757338 -27.909818 -1.320437 2.687586 10.171294 29.533136 1.625865 4.527656 -26.076101 5.189709 -13.594362 -41.636095 0.000000 0.000000 0.000000 26.659152 15.147349 3.424850 -1.885085 -8.622419 24.621228 -0.829120 -23.770702 -38.011487 -0.040597 -1.293254 3.556094 2.230548 2.321212 5.433284 0.461925 3.235389 -4.978086 -1.154088 1.415159 -8.185688 2.837992 10.178149 -4.014701 1.829460 12.667603 19.463874 0.968832 6.167010 6.659632 0.000000 0.000000 0.000000 5.302313 14.947234 -41.761828 21.767474 -32.713166 6.459717 15.420609 11.136583 31.693146 0.000000 0.000000 0.000000 -7.125000 0.000000 0.000000 -9.173541 -2.290316 -9.656074 0.000000 0.000000 0.000000 -7.317537 16.699883 48.027471 -18.790586 -29.157576 -4.928407 -42.006483 57.952430 59.686501 0.000000 0.000000 0.000000 7.125000 0.000000 0.000000 143.012446 -82.248748 147.934695
8.616187 15.151468 41.466362 -180.270157 -18.545231 181.387851 0.000000 0.000000 0.000000 -23.860753 -28.379044 -1.363401 2.669183 10.139167 29.428584 1.599769 4.942261 -26.107853 4.964024 -13.343185 -40.667063 0.000000 0.000000 0.000000 26.364269 15.105884 2.940910 -1.904455 -8.664212 24.750386 -0.752179 -23.772527 -37.625318 -0.024345 -1.006858 2.767669 2.354242 2.379433 5.435910 0.397392 3.316140 -5.097827 -1.303299 1.439346 -8.303674 1.646940 9.487247 -4.296861 2.546593 11.709994 19.471581 1.311539 5.676502 6.578342 0.000000 0.000000 0.000000 5.314500 14.819992 -41.661475 21.667713 -32.599468 6.405870 12.371154 13.354192 31.687983 0.000000 0.000000 0.000000 -7.125000 0.000000 0.000000 -10.896183 -1.799544 -11.441418 0.000000 0.000000 0.000000 -7.555496 16.975974 47.954186 -19.082789 -29.521445 -5.071611 -38.230319 53.680380 60.016259 0.000000 0.000000 0.000000 7.125000 0.000000 0.000000 131.267817 -82.235055 137.387863
8.621270 15.147851 41.460277 -180.242227 -18.557045 181.257419 0.000000 0.000000 0.000000 -23.700371 -27.700187 -1.543414 2.675994 10.151107 29.467544 1.638889 4.315027 -26.059808 5.121992 -13.519864 -41.347188 0.000000 0.000000 0.000000 26.522064 15.166179 3.230470 -1.896361 -8.646881 24.696727 -0.751403 -23.907625 -37.779156 -0.024631 -1.011284 2.779796 2.205672 2.342943 5.404738 0.460681 3.258686 -5.032367 -1.144139 1.425437 -8.228213 0.904505 8.588241 -4.110399 2.628426 10.538325 19.159736 1.350161 5.065001 6.400323 0.000000 0.000000 0.000000 5.282855 14.715173 -41.362045 21.526127 -32.437307 6.329763 10.655432 12.679551 33.288970 0.000000 0.000000 0.000000 -7.125000 0.000000 0.000000 -11.984562 -3.119741 -12.898266 0.000000 0.000000 0.000000 -7.675965 17.113743 47.755248 -19.203844 -29.671258 -5.131351 -37.183662 52.423832 59.963391 0.000000 0.000000 0.000000 7.125000 0.000000 0.000000 127.726659 -82.275069 134.117540
